<?xml version="1.0" encoding="UTF-8"?>
<mxfile host="app.diagrams.net" modified="2023-06-11T10:00:00.000Z">
  <diagram name="Weather App" id="1234567890">
    <mxGraphModel dx="1030" dy="523" grid="1" gridSize="10" guides="1" tooltips="1" connect="1" arrows="1" fold="1" page="1" pageScale="1" pageWidth="827" pageHeight="1169" math="0" shadow="0">
      <root>
        <mxCell id="0" />
        <mxCell id="1" parent="0" />
        <mxCell id="86jH4-iu6WjHGJZFxkIp-3" value="" style="rounded=0;whiteSpace=wrap;html=1;" vertex="1" parent="1">
          <mxGeometry x="190" y="230" width="120" height="60" as="geometry" />
        </mxCell>
        <mxCell id="86jH4-iu6WjHGJZFxkIp-4" value="" style="rounded=0;whiteSpace=wrap;html=1;" vertex="1" parent="1">
          <mxGeometry x="420" y="230" width="120" height="60" as="geometry" />
        </mxCell>
        <mxCell id="86jH4-iu6WjHGJZFxkIp-5" value="" style="rounded=0;whiteSpace=wrap;html=1;" vertex="1" parent="1">
          <mxGeometry x="650" y="230" width="120" height="60" as="geometry" />
        </mxCell>
        <mxCell id="86jH4-iu6WjHGJZFxkIp-6" value="" style="rounded=0;whiteSpace=wrap;html=1;" vertex="1" parent="1">
          <mxGeometry x="330" y="350" width="120" height="60" as="geometry" />
        </mxCell>
        <mxCell id="86jH4-iu6WjHGJZFxkIp-7" value="" style="rounded=0;whiteSpace=wrap;html=1;" vertex="1" parent="1">
          <mxGeometry x="560" y="350" width="120" height="60" as="geometry" />
        </mxCell>
        <mxCell id="86jH4-iu6WjHGJZFxkIp-8" value="" style="rounded=0;whiteSpace=wrap;html=1;" vertex="1" parent="1">
          <mxGeometry x="330" y="470" width="120" height="60" as="geometry" />
        </mxCell>
        <mxCell id="86jH4-iu6WjHGJZFxkIp-9" value="" style="rounded=0;whiteSpace=wrap;html=1;" vertex="1" parent="1">
          <mxGeometry x="560" y="470" width="120" height="60" as="geometry" />
        </mxCell>
        <mxCell id="86jH4-iu6WjHGJZFxkIp-10" style="edgeStyle=orthogonalEdgeStyle;rounded=0;orthogonalLoop=1;jettySize=auto;html=1;" edge="1" parent="1" source="86jH4-iu6WjHGJZFxkIp-3" target="86jH4-iu6WjHGJZFxkIp-4">
          <mxGeometry relative="1" as="geometry" />
        </mxCell>
        <mxCell id="86jH4-iu6WjHGJZFxkIp-11" style="edgeStyle=orthogonalEdgeStyle;rounded=0;orthogonalLoop=1;jettySize=auto;html=1;" edge="1" parent="1" source="86jH4-iu6WjHGJZFxkIp-4" target="86jH4-iu6WjHGJZFxkIp-5">
          <mxGeometry relative="1" as="geometry" />
        </mxCell>
        <mxCell id="86jH4-iu6WjHGJZFxkIp-12" style="edgeStyle=orthogonalEdgeStyle;rounded=0;orthogonalLoop=1;jettySize=auto;html=1;" edge="1" parent="1" source="86jH4-iu6WjHGJZFxkIp-4" target="86jH4-iu6WjHGJZFxkIp-6">
          <mxGeometry relative="1" as="geometry" />
        </mxCell>
        <mxCell id="86jH4-iu6WjHGJZFxkIp-13" style="edgeStyle=orthogonalEdgeStyle;rounded=0;orthogonalLoop=1;jettySize=auto;html=1;" edge="1" parent="1" source="86jH4-iu6WjHGJZFxkIp-5" target="86jH4-iu6WjHGJZFxkIp-7">
          <mxGeometry relative="1" as="geometry" />
        </mxCell>
        <mxCell id="86jH4-iu6WjHGJZFxkIp-14" style="edgeStyle=orthogonalEdgeStyle;rounded=0;orthogonalLoop=1;jettySize=auto;html=1;" edge="1" parent="1" source="86jH4-iu6WjHGJZFxkIp-6" target="86jH4-iu6WjHGJZFxkIp-8">
          <mxGeometry relative="1" as="geometry" />
        </mxCell>
        <mxCell id="86jH4-iu6WjHGJZFxkIp-15" style="edgeStyle=orthogonalEdgeStyle;rounded=0;orthogonalLoop=1;jettySize=auto;html=1;" edge="1" parent="1" source="86jH4-iu6WjHGJZFxkIp-7" target="86jH4-iu6WjHGJZFxkIp-9">
          <mxGeometry relative="1" as="geometry" />
        </mxCell>
        <mxCell id="86jH4-iu6WjHGJZFxkIp-16" value="Weathermod" style="rounded=0;whiteSpace=wrap;html=1;" vertex="1" parent="1">
          <mxGeometry x="780" y="230" width="120" height="60" as="geometry" />
        </mxCell>
        <mxCell id="86jH4-iu6WjHGJZFxkIp-17" value="WeatherShow" style="rounded=0;whiteSpace=wrap;html=1;" vertex="1" parent="1">
          <mxGeometry x="40" y="230" width="120" height="60" as="geometry" />
        </mxCell>
        <mxCell id="86jH4-iu6WjHGJZFxkIp-18" style="edgeStyle=orthogonalEdgeStyle;rounded=0;orthogonalLoop=1;jettySize=auto;html=1;" edge="1" parent="1" source="86jH4-iu6WjHGJZFxkIp-17" target="86jH4-iu6WjHGJZFxkIp-3">
          <mxGeometry relative="1" as="geometry" />
        </mxCell>
        <mxCell id="86jH4-iu6WjHGJZFxkIp-19" style="edgeStyle=orthogonalEdgeStyle;rounded=0;orthogonalLoop=1;jettySize=auto;html=1;" edge="1" parent="1" source="86jH4-iu6WjHGJZFxkIp-17" target="86jH4-iu6WjHGJZFxkIp-16">
          <mxGeometry relative="1" as="geometry" />
        </mxCell>
        <mxCell id="86jH4-iu6WjHGJZFxkIp-20" style="edgeStyle=orthogonalEdgeStyle;rounded=0;orthogonalLoop=1;jettySize=auto;html=1;" edge="1" parent="1" source="86jH4-iu6WjHGJZFxkIp-9" target="86jH4-iu6WjHGJZFxkIp-16">
          <mxGeometry relative="1" as="geometry" />
        </mxCell>
      </root>
    </mxGraphModel>
  </diagram>
</mxfile>

